<?xml version="1.0" encoding="utf-8"?>
<!-- Generator: Adobe Illustrator 17.0.0, SVG Export Plug-In . SVG Version: 6.00 Build 0)  -->
<!DOCTYPE svg PUBLIC "-//W3C//DTD SVG 1.1//EN" "http://www.w3.org/Graphics/SVG/1.1/DTD/svg11.dtd">
<svg version="1.1" id="Слой_1" xmlns="http://www.w3.org/2000/svg" xmlns:xlink="http://www.w3.org/1999/xlink" x="0px" y="0px"
	 width="64px" height="64px" viewBox="0 0 64 64" enable-background="new 0 0 64 64" xml:space="preserve">
<path fill="#738082" d="M56.896,28.124c0,0,3.295-12.062,0-18.035C53.601,4.115,43.92-8.346,4.993,9.573
	c22.45-0.618,17.095,15.344,16.752,22.038L56.896,28.124z"/>
<path fill="#FFF9C5" d="M21.745,31.612c0,14.484,8.914,26.226,19.91,26.226s16.683-11.742,16.683-26.226
	c0-3.621-0.557-6.533-1.565-8.863c-3.022-6.992-6.872-8.754-15.119-8.754c-7.836,0-11.732,1.591-14.98,7.748
	C25.364,24.225,21.745,27.449,21.745,31.612z"/>
<path fill="#FFC75D" d="M41.655,54.934c10.292,0,15.932-10.286,16.612-23.479c0.043,0.662,0.071,1.342,0.071,2.059
	c0,14.484-5.687,26.226-16.683,26.226c-10.996,0-19.91-11.742-19.91-26.226c0-0.524,0.058-1.032,0.16-1.526
	C23.131,44.923,31.502,54.934,41.655,54.934z"/>
<path fill="#FFC75D" d="M36.038,52.302c0,6.313,2.896,11.43,6.469,11.43s6.469-5.117,6.469-11.43c0-3.156-3.234-0.918-6.469-0.918
	C39.273,51.384,36.038,49.146,36.038,52.302z"/>
<path fill="#FFC75D" d="M36.038,48.049c0-1.654,2.896-2.995,6.469-2.995s6.469,1.341,6.469,2.995c0,0.827-3.234,0.241-6.469,0.241
	C39.273,48.289,36.038,48.876,36.038,48.049z"/>
<path fill="#738082" d="M37.838,32.852c-1.52,0.051-3.344,0.051-4.509,0c-1.165-0.051-2.077-0.051-2.888-1.013
	c0,0,0.355-0.811,1.672-1.267c1.317-0.456,2.787-0.355,3.293,0C35.913,30.926,37.838,32.852,37.838,32.852z"/>
<path fill="#738082" d="M46.45,33.015c1.509,0.192,3.325,0.361,4.49,0.419c1.165,0.058,2.073,0.142,2.97-0.741
	c0,0-0.278-0.84-1.547-1.416c-1.269-0.576-2.894-0.156-3.431,0.15C48.394,31.733,46.45,33.015,46.45,33.015z"/>
</svg>
