<?xml version="1.0" encoding="utf-8"?>
<!-- Generator: Adobe Illustrator 17.0.0, SVG Export Plug-In . SVG Version: 6.00 Build 0)  -->
<!DOCTYPE svg PUBLIC "-//W3C//DTD SVG 1.1//EN" "http://www.w3.org/Graphics/SVG/1.1/DTD/svg11.dtd">
<svg version="1.1" id="Слой_1" xmlns="http://www.w3.org/2000/svg" xmlns:xlink="http://www.w3.org/1999/xlink" x="0px" y="0px"
	 width="64px" height="64px" viewBox="0 0 64 64" enable-background="new 0 0 64 64" xml:space="preserve">
<g>
	<path fill="#EEFF4E" d="M63.974,31.988c0,17.676-14.323,31.987-31.987,31.987S0,49.664,0,31.988C0,14.323,14.324,0,31.988,0
		S63.974,14.323,63.974,31.988z"/>
	<g>
		<path fill="#D71920" d="M49.92,21.972c-1.047-4.021-3.68-6.417-7.707-7.266c-1.133-0.239-2.312-0.349-3.472-0.36
			c-4.483-0.041-8.967-0.04-13.45-0.005c-1.594,0.012-3.184,0.168-4.719,0.675c-3.693,1.221-5.866,3.797-6.627,7.555
			c-0.254,1.255-0.356,2.558-0.37,3.84c-0.044,4.237-0.053,8.476,0.004,12.713c0.019,1.403,0.138,2.835,0.456,4.196
			c0.978,4.19,3.688,6.665,7.879,7.535c0.716,0.149,1.446,0.228,2.169,0.34c5.283,0,10.565,0,15.848,0
			c0.898-0.155,1.803-0.274,2.691-0.471c4.089-0.907,7.151-4.081,7.664-9.059c0.034-0.326,0.098-0.65,0.149-0.975
			c0-5.283,0-10.565,0-15.848C50.267,23.886,50.164,22.91,49.92,21.972z M46.866,40.866c-0.081,4.053-2.728,6.684-6.785,6.763
			c-5.37,0.104-10.743,0.084-16.114,0.006c-3.447-0.05-5.757-1.903-6.561-5.004c-0.13-0.503-0.263-1.023-0.268-1.537
			c-0.045-4.941-0.094-9.883-0.067-14.824c0.007-1.245,0.136-2.527,0.456-3.726c0.685-2.569,2.495-4.054,5.081-4.457
			c1.63-0.254,3.297-0.296,4.951-0.358c1.503-0.057,3.009-0.012,4.514-0.012c0.001-0.024,0.001-0.048,0.002-0.071
			c2.639,0.076,5.279,0.119,7.916,0.24c1.713,0.079,3.33,0.51,4.669,1.684c1.542,1.351,2.181,3.149,2.208,5.091
			C46.942,30.062,46.974,35.466,46.866,40.866z"/>
		<path fill="#D71920" d="M32.036,23.227c-5.237-0.04-9.548,4.251-9.57,9.526c-0.022,5.246,4.284,9.546,9.549,9.535
			c5.277-0.011,9.561-4.317,9.512-9.561C41.478,27.461,37.288,23.267,32.036,23.227z M32.032,38.818
			c-3.393,0.006-6.079-2.666-6.08-6.048c-0.001-3.39,2.673-6.06,6.066-6.057c3.379,0.003,6.048,2.693,6.04,6.089
			C38.049,36.129,35.363,38.812,32.032,38.818z"/>
		<path fill="#D71920" d="M41.832,20.661c-1.249,0.002-2.29,1.036-2.289,2.272c0.001,1.216,1.071,2.285,2.289,2.288
			c1.232,0.003,2.272-1.044,2.273-2.289C44.108,21.673,43.093,20.659,41.832,20.661z"/>
	</g>
</g>
</svg>
