<?xml version="1.0" encoding="utf-8"?>
<!-- Generator: Adobe Illustrator 17.0.0, SVG Export Plug-In . SVG Version: 6.00 Build 0)  -->
<!DOCTYPE svg PUBLIC "-//W3C//DTD SVG 1.1//EN" "http://www.w3.org/Graphics/SVG/1.1/DTD/svg11.dtd">
<svg version="1.1" id="Слой_1" xmlns="http://www.w3.org/2000/svg" xmlns:xlink="http://www.w3.org/1999/xlink" x="0px" y="0px"
	 width="64px" height="64px" viewBox="0 0 64 64" enable-background="new 0 0 64 64" xml:space="preserve">
<g>
	<path fill="#0073B5" d="M63.934,31.971c0,17.664-14.313,31.965-31.965,31.965S0.003,49.635,0.003,31.971
		c0-17.652,14.314-31.966,31.966-31.966S63.934,14.319,63.934,31.971z"/>
	<g>
		<path fill="#FFFFFF" d="M33.527,29.654c0.307-0.391,0.566-0.785,0.886-1.12c1.261-1.317,2.837-1.951,4.639-2.034
			c1.3-0.06,2.58,0.083,3.798,0.571c1.711,0.685,2.755,1.979,3.321,3.697c0.43,1.306,0.608,2.656,0.617,4.021
			c0.027,3.874,0.027,7.748,0.037,11.622c0.001,0.37-0.002,0.37-0.379,0.37c-1.824,0-3.649,0-5.473,0
			c-0.391,0-0.392-0.001-0.392-0.384c-0.003-3.504,0.004-7.008-0.014-10.512c-0.004-0.776-0.112-1.548-0.417-2.276
			c-0.401-0.958-1.117-1.495-2.148-1.631c-0.6-0.079-1.191-0.044-1.77,0.109c-1.304,0.345-1.975,1.287-2.224,2.537
			c-0.149,0.746-0.221,1.519-0.227,2.281c-0.024,3.161-0.01,6.322-0.01,9.483c0,0.393-0.001,0.394-0.383,0.394
			c-1.815,0-3.631,0-5.446,0c-0.368,0-0.369-0.001-0.369-0.381c0-6.34,0-12.68,0-19.02c0-0.411,0.001-0.411,0.397-0.411
			c1.725,0,3.45,0,5.175,0c0.364,0,0.365,0.001,0.365,0.354c0.001,0.686,0,1.373,0.001,2.059
			C33.513,29.468,33.522,29.554,33.527,29.654z"/>
		<path fill="#FFFFFF" d="M17.597,36.854c0-3.169,0-6.339,0-9.508c0-0.375,0.001-0.376,0.37-0.376c1.824,0,3.648,0,5.472,0
			c0.355,0,0.36,0.004,0.36,0.367c0,6.366-0.001,12.732,0.006,19.098c0,0.273-0.079,0.355-0.353,0.353
			c-1.833-0.011-3.666-0.005-5.499-0.006c-0.354,0-0.355-0.001-0.355-0.365C17.597,43.229,17.597,40.041,17.597,36.854z"/>
		<path fill="#FFFFFF" d="M20.711,24.354c-1.979,0.005-3.602-1.618-3.601-3.601c0.001-1.98,1.604-3.584,3.575-3.598
			c1.897-0.014,3.634,1.477,3.63,3.599C24.311,22.877,22.616,24.335,20.711,24.354z"/>
	</g>
</g>
</svg>
