<?xml version="1.0" encoding="utf-8"?>
<!-- Generator: Adobe Illustrator 17.0.0, SVG Export Plug-In . SVG Version: 6.00 Build 0)  -->
<!DOCTYPE svg PUBLIC "-//W3C//DTD SVG 1.1//EN" "http://www.w3.org/Graphics/SVG/1.1/DTD/svg11.dtd">
<svg version="1.1" id="Слой_1" xmlns="http://www.w3.org/2000/svg" xmlns:xlink="http://www.w3.org/1999/xlink" x="0px" y="0px"
	 width="64px" height="64px" viewBox="0 0 64 64" enable-background="new 0 0 64 64" xml:space="preserve">
<g>
	<path fill="#00ACF2" d="M63.907,31.944c0,17.632-14.287,31.906-31.906,31.906S0.094,49.576,0.094,31.944
		c0-17.62,14.288-31.907,31.907-31.907S63.907,14.324,63.907,31.944z"/>
	<path fill="#FFFFFF" d="M40.677,51.037c-1.599,0.08-3.113-0.413-4.61-1.047c-0.481-0.204-1.072-0.329-1.581-0.259
		c-9.515,1.305-18.193-5.062-20.057-14.215c-0.405-1.989-0.461-3.985-0.22-6.002c0.055-0.458-0.053-0.994-0.255-1.414
		c-2.374-4.939-0.919-10.598,3.572-13.508c3.221-2.087,6.635-2.284,10.133-0.73c0.687,0.305,1.338,0.467,2.097,0.366
		c7.973-1.067,15.814,3.53,18.806,11.018c1.208,3.024,1.66,6.143,1.162,9.388c-0.054,0.352,0.11,0.779,0.279,1.119
		c2.31,4.65,1.127,10.057-2.896,13.158C45.253,50.341,43.163,51.037,40.677,51.037z M32.287,44.548
		c2.836-0.023,5.306-0.517,7.36-2.226c2.251-1.872,3.046-4.341,2.515-7.167c-0.438-2.332-2.156-3.654-4.232-4.437
		c-1.826-0.688-3.743-1.134-5.612-1.711c-1.125-0.347-2.273-0.658-3.343-1.136c-1.131-0.505-1.405-1.53-0.725-2.57
		c0.296-0.452,0.791-0.879,1.291-1.074c2.044-0.8,4.001-0.527,5.779,0.766c0.71,0.516,1.349,1.13,2.038,1.676
		c0.897,0.711,1.912,0.738,2.926,0.349c1.313-0.503,1.795-2.12,1.092-3.514c-0.681-1.349-1.849-2.157-3.155-2.804
		c-2.599-1.286-5.383-1.641-8.222-1.438c-2.312,0.165-4.425,0.956-6.018,2.758c-3.03,3.427-2.095,8.339,2.003,10.306
		c1.122,0.539,2.349,0.872,3.545,1.245c1.891,0.59,3.85,0.999,5.68,1.735c1.869,0.751,2.034,2.77,0.456,4.042
		c-0.363,0.293-0.806,0.538-1.253,0.667c-2.304,0.665-4.417,0.443-6.174-1.401c-0.76-0.799-1.508-1.645-2.399-2.276
		c-1.492-1.056-3.309-0.066-3.404,1.757c-0.107,2.061,1.035,3.405,2.618,4.448C27.313,44.034,29.879,44.464,32.287,44.548z"/>
</g>
</svg>
