<?xml version="1.0" encoding="utf-8"?>
<!-- Generator: Adobe Illustrator 17.0.0, SVG Export Plug-In . SVG Version: 6.00 Build 0)  -->
<!DOCTYPE svg PUBLIC "-//W3C//DTD SVG 1.1//EN" "http://www.w3.org/Graphics/SVG/1.1/DTD/svg11.dtd">
<svg version="1.1" id="Слой_1" xmlns="http://www.w3.org/2000/svg" xmlns:xlink="http://www.w3.org/1999/xlink" x="0px" y="0px"
	 width="64px" height="64px" viewBox="0 0 64 64" enable-background="new 0 0 64 64" xml:space="preserve">
<g>
	<path fill="#4A74A5" d="M63.974,31.988c0,17.676-14.323,31.987-31.987,31.987S0,49.664,0,31.988C0,14.323,14.324,0,31.988,0
		S63.974,14.323,63.974,31.988z"/>
	<path fill="#FFFFFF" d="M25.038,22.067c0.118-0.52,0.369-0.818,0.747-1.056c0.844-0.531,1.796-0.628,2.743-0.666
		c1.309-0.052,2.623-0.042,3.933,0.001c0.588,0.02,1.18,0.149,1.753,0.294c0.676,0.171,1.12,0.621,1.241,1.328
		c0.068,0.397,0.136,0.801,0.13,1.201c-0.031,2.119-0.107,4.238-0.116,6.358c-0.002,0.508,0.118,1.046,0.311,1.517
		c0.271,0.665,0.662,0.759,1.237,0.343c0.361-0.262,0.689-0.59,0.97-0.938c1.872-2.317,3.243-4.922,4.365-7.668
		c0.063-0.154,0.121-0.31,0.181-0.466c0.271-0.701,0.735-1.025,1.531-1.009c2.193,0.042,4.386,0.009,6.58,0.015
		c1.577,0.005,2.115,0.738,1.48,2.197c-0.453,1.041-1.031,2.046-1.679,2.98c-1.154,1.662-2.405,3.257-3.61,4.884
		c-0.255,0.344-0.508,0.693-0.728,1.059c-0.554,0.922-0.507,1.548,0.235,2.322c0.725,0.756,1.503,1.462,2.252,2.197
		c1.158,1.136,2.292,2.293,3.162,3.675c0.177,0.281,0.347,0.572,0.472,0.879c0.351,0.859,0.047,1.588-0.818,1.899
		c-0.35,0.126-0.741,0.188-1.114,0.192c-1.597,0.021-3.195,0.008-4.792,0.013c-0.355,0.001-0.712,0.058-1.064,0.032
		c-1.144-0.085-2.098-0.609-2.894-1.401c-0.743-0.739-1.427-1.536-2.149-2.296c-0.409-0.43-0.809-0.879-1.272-1.246
		c-0.872-0.69-1.61-0.531-2.067,0.474c-0.241,0.53-0.348,1.13-0.457,1.709c-0.092,0.489-0.085,0.996-0.15,1.491
		c-0.09,0.687-0.595,1.178-1.284,1.224c-3.188,0.211-6.293-0.092-9.119-1.731c-1.742-1.011-3.25-2.326-4.547-3.877
		c-1.686-2.018-3.128-4.204-4.442-6.475c-1.527-2.638-2.916-5.348-4.141-8.141c-0.132-0.302-0.262-0.619-0.309-0.941
		c-0.084-0.568,0.107-0.852,0.653-1.021c0.244-0.076,0.515-0.093,0.773-0.094c1.836-0.006,3.672,0.013,5.507-0.007
		c0.902-0.01,1.479,0.385,1.82,1.206c0.997,2.4,2.158,4.716,3.639,6.859c0.378,0.547,0.801,1.066,1.23,1.575
		c0.181,0.215,0.412,0.404,0.654,0.547c0.521,0.306,0.997,0.16,1.229-0.395c0.154-0.369,0.263-0.769,0.316-1.165
		c0.26-1.945,0.231-3.889-0.075-5.829c-0.159-1.005-0.727-1.619-1.715-1.855C25.461,22.218,25.286,22.148,25.038,22.067z"/>
</g>
</svg>
