<?xml version="1.0" encoding="UTF-8"?>
<svg width="675px" height="675px" viewBox="0 0 675 675" version="1.1" xmlns="http://www.w3.org/2000/svg" xmlns:xlink="http://www.w3.org/1999/xlink">
    <!-- Generator: Sketch 47.1 (45422) - http://www.bohemiancoding.com/sketch -->
    <title>2</title>
    <desc>Created with Sketch.</desc>
    <defs>
        <linearGradient x1="-26.292865%" y1="79.2779738%" x2="131.479881%" y2="30.9362399%" id="linearGradient-1">
            <stop stop-color="#EAEAEA" offset="0%"></stop>
            <stop stop-color="#FFFFFF" offset="100%"></stop>
        </linearGradient>
        <rect id="path-2" x="130" y="370" width="113" height="155"></rect>
        <filter x="-27.4%" y="-18.7%" width="154.9%" height="140.0%" filterUnits="objectBoundingBox" id="filter-3">
            <feOffset dx="0" dy="2" in="SourceAlpha" result="shadowOffsetOuter1"></feOffset>
            <feGaussianBlur stdDeviation="10" in="shadowOffsetOuter1" result="shadowBlurOuter1"></feGaussianBlur>
            <feColorMatrix values="0 0 0 0 0   0 0 0 0 0   0 0 0 0 0  0 0 0 0.35790308 0" type="matrix" in="shadowBlurOuter1"></feColorMatrix>
        </filter>
        <rect id="path-4" x="400" y="120" width="149" height="202"></rect>
        <filter x="-20.8%" y="-14.4%" width="141.6%" height="130.7%" filterUnits="objectBoundingBox" id="filter-5">
            <feOffset dx="0" dy="2" in="SourceAlpha" result="shadowOffsetOuter1"></feOffset>
            <feGaussianBlur stdDeviation="10" in="shadowOffsetOuter1" result="shadowBlurOuter1"></feGaussianBlur>
            <feColorMatrix values="0 0 0 0 0   0 0 0 0 0   0 0 0 0 0  0 0 0 0.35790308 0" type="matrix" in="shadowBlurOuter1"></feColorMatrix>
        </filter>
        <linearGradient x1="645.175439%" y1="78.9876391%" x2="-105.242599%" y2="67.8525816%" id="linearGradient-6">
            <stop stop-color="#000000" offset="0%"></stop>
            <stop stop-color="#000000" offset="29.9060867%"></stop>
            <stop stop-color="#FFFFFF" offset="100%"></stop>
        </linearGradient>
        <rect id="path-7" x="23.5" y="-23.5" width="92" height="139"></rect>
        <filter x="-33.7%" y="-20.9%" width="167.4%" height="144.6%" filterUnits="objectBoundingBox" id="filter-8">
            <feOffset dx="0" dy="2" in="SourceAlpha" result="shadowOffsetOuter1"></feOffset>
            <feGaussianBlur stdDeviation="10" in="shadowOffsetOuter1" result="shadowBlurOuter1"></feGaussianBlur>
            <feColorMatrix values="0 0 0 0 0   0 0 0 0 0   0 0 0 0 0  0 0 0 0.35790308 0" type="matrix" in="shadowBlurOuter1"></feColorMatrix>
        </filter>
        <rect id="path-9" x="27" y="-21" width="84" height="132"></rect>
        <filter x="-36.9%" y="-22.0%" width="173.8%" height="147.0%" filterUnits="objectBoundingBox" id="filter-10">
            <feOffset dx="0" dy="2" in="SourceAlpha" result="shadowOffsetOuter1"></feOffset>
            <feGaussianBlur stdDeviation="10" in="shadowOffsetOuter1" result="shadowBlurOuter1"></feGaussianBlur>
            <feColorMatrix values="0 0 0 0 0   0 0 0 0 0   0 0 0 0 0  0 0 0 0.35790308 0" type="matrix" in="shadowBlurOuter1"></feColorMatrix>
        </filter>
        <linearGradient x1="50%" y1="100%" x2="50%" y2="2.4613361%" id="linearGradient-11">
            <stop stop-color="#F05E5E" offset="0%"></stop>
            <stop stop-color="#95DC15" offset="100%"></stop>
        </linearGradient>
    </defs>
    <g id="Page-1" stroke="none" stroke-width="1" fill="none" fill-rule="evenodd">
        <g id="2">
            <rect id="Rectangle-12" fill="#D8D8D8" x="110" y="181" width="456" height="287" rx="8"></rect>
            <rect id="Rectangle-12-Copy" fill="#D8D8D8" x="324" y="424" width="28" height="120"></rect>
            <rect id="Rectangle-4" fill="#ECECEC" x="123" y="192" width="430" height="255"></rect>
            <g id="Group-5" transform="translate(12.000000, 23.000000)">
                <polygon id="Path-17" fill="#979797" fill-rule="nonzero" points="33.5 608.5 33.5 31 30.5 31 30.5 611.5 620 611.5 620 608.5"></polygon>
                <g id="Group" transform="translate(33.000000, 43.000000)">
                    <rect id="Rectangle-13" fill="#D8D8D8" x="199" y="474" width="189" height="7"></rect>
                    <polygon id="Path-18-Copy" fill="#979797" fill-rule="nonzero" points="0 528.5 8 528.5 8 527.5 0 527.5"></polygon>
                    <polygon id="Path-18-Copy-2" fill="#979797" fill-rule="nonzero" points="0 497.5 8 497.5 8 496.5 0 496.5"></polygon>
                    <polygon id="Path-18-Copy-3" fill="#979797" fill-rule="nonzero" points="0 466.5 8 466.5 8 465.5 0 465.5"></polygon>
                    <polygon id="Path-18-Copy-4" fill="#979797" fill-rule="nonzero" points="0 435.5 8 435.5 8 434.5 0 434.5"></polygon>
                    <polygon id="Path-18-Copy-5" fill="#979797" fill-rule="nonzero" points="0 404.5 8 404.5 8 403.5 0 403.5"></polygon>
                    <polygon id="Path-18-Copy-6" fill="#979797" fill-rule="nonzero" points="0 373.5 8 373.5 8 372.5 0 372.5"></polygon>
                    <polygon id="Path-18-Copy-7" fill="#979797" fill-rule="nonzero" points="0 342.5 8 342.5 8 341.5 0 341.5"></polygon>
                    <polygon id="Path-18-Copy-8" fill="#979797" fill-rule="nonzero" points="0 311.5 8 311.5 8 310.5 0 310.5"></polygon>
                    <polygon id="Path-18-Copy-9" fill="#979797" fill-rule="nonzero" points="0 280.5 8 280.5 8 279.5 0 279.5"></polygon>
                    <polygon id="Path-18-Copy-10" fill="#979797" fill-rule="nonzero" points="0 249.5 8 249.5 8 248.5 0 248.5"></polygon>
                    <polygon id="Path-18-Copy-11" fill="#979797" fill-rule="nonzero" points="0 218.5 8 218.5 8 217.5 0 217.5"></polygon>
                    <polygon id="Path-18-Copy-12" fill="#979797" fill-rule="nonzero" points="0 187.5 8 187.5 8 186.5 0 186.5"></polygon>
                    <polygon id="Path-18-Copy-13" fill="#979797" fill-rule="nonzero" points="0 156.5 8 156.5 8 155.5 0 155.5"></polygon>
                    <polygon id="Path-18-Copy-14" fill="#979797" fill-rule="nonzero" points="0 125.5 8 125.5 8 124.5 0 124.5"></polygon>
                    <polygon id="Path-18-Copy-15" fill="#979797" fill-rule="nonzero" points="0 94.5 8 94.5 8 93.5 0 93.5"></polygon>
                    <polygon id="Path-18-Copy-16" fill="#979797" fill-rule="nonzero" points="0 63.5 8 63.5 8 62.5 0 62.5"></polygon>
                    <polygon id="Path-18-Copy-17" fill="#979797" fill-rule="nonzero" points="0 32.5 8 32.5 8 31.5 0 31.5"></polygon>
                    <polygon id="Path-18-Copy-18" fill="#979797" fill-rule="nonzero" points="0 1.5 8 1.5 8 0.5 0 0.5"></polygon>
                </g>
                <g id="Group" transform="translate(335.500000, 606.000000) rotate(90.000000) translate(-335.500000, -606.000000) translate(331.500000, 341.500000)" fill-rule="nonzero" fill="#979797">
                    <polygon id="Path-18-Copy-2" points="0 528.5 8 528.5 8 527.5 0 527.5"></polygon>
                    <polygon id="Path-18-Copy-3" points="0 497.5 8 497.5 8 496.5 0 496.5"></polygon>
                    <polygon id="Path-18-Copy-4" points="0 466.5 8 466.5 8 465.5 0 465.5"></polygon>
                    <polygon id="Path-18-Copy-5" points="0 435.5 8 435.5 8 434.5 0 434.5"></polygon>
                    <polygon id="Path-18-Copy-6" points="0 404.5 8 404.5 8 403.5 0 403.5"></polygon>
                    <polygon id="Path-18-Copy-7" points="0 373.5 8 373.5 8 372.5 0 372.5"></polygon>
                    <polygon id="Path-18-Copy-8" points="0 342.5 8 342.5 8 341.5 0 341.5"></polygon>
                    <polygon id="Path-18-Copy-9" points="0 311.5 8 311.5 8 310.5 0 310.5"></polygon>
                    <polygon id="Path-18-Copy-10" points="0 280.5 8 280.5 8 279.5 0 279.5"></polygon>
                    <polygon id="Path-18-Copy-11" points="0 249.5 8 249.5 8 248.5 0 248.5"></polygon>
                    <polygon id="Path-18-Copy-12" points="0 218.5 8 218.5 8 217.5 0 217.5"></polygon>
                    <polygon id="Path-18-Copy-13" points="0 187.5 8 187.5 8 186.5 0 186.5"></polygon>
                    <polygon id="Path-18-Copy-14" points="0 156.5 8 156.5 8 155.5 0 155.5"></polygon>
                    <polygon id="Path-18-Copy-15" points="0 125.5 8 125.5 8 124.5 0 124.5"></polygon>
                    <polygon id="Path-18-Copy-16" points="0 94.5 8 94.5 8 93.5 0 93.5"></polygon>
                    <polygon id="Path-18-Copy-17" points="0 63.5 8 63.5 8 62.5 0 62.5"></polygon>
                    <polygon id="Path-18-Copy-18" points="0 32.5 8 32.5 8 31.5 0 31.5"></polygon>
                    <polygon id="Path-18-Copy-19" points="0 1.5 8 1.5 8 0.5 0 0.5"></polygon>
                </g>
                <path d="M8.74,1 L10.34,1 L10.34,10.34 C10.34,11.1800042 10.2300011,11.9066636 10.01,12.52 C9.7899989,13.1333364 9.4766687,13.6366647 9.07,14.03 C8.6633313,14.4233353 8.1733362,14.7133324 7.6,14.9 C7.0266638,15.0866676 6.3933368,15.18 5.7,15.18 C4.0466584,15.18 2.8000042,14.8066704 1.96,14.06 C1.1199958,13.3133296 0.7,12.1800076 0.7,10.66 L0.7,1 L2.36,1 L2.36,9.88 C2.36,10.5866702 2.4299993,11.1833309 2.57,11.67 C2.7100007,12.1566691 2.9199986,12.5499985 3.2,12.85 C3.4800014,13.1500015 3.8299979,13.366666 4.25,13.5 C4.6700021,13.633334 5.1599972,13.7 5.72,13.7 C6.8000054,13.7 7.573331,13.4033363 8.04,12.81 C8.506669,12.2166637 8.74,11.2400068 8.74,9.88 L8.74,1 Z M17.22,7.88 L12.96,1 L14.96,1 L17.8,5.74 L18.3,6.88 L18.78,5.74 L21.78,1 L23.62,1 L19.22,7.74 L23.82,15 L21.88,15 L18.72,9.98 L18.18,8.78 L17.66,9.98 L14.42,15 L12.56,15 L17.22,7.88 Z M30.84,1.14 C31.3466692,1.0199994 31.8933304,0.9400002 32.48,0.9 C33.0666696,0.8599998 33.6466638,0.84 34.22,0.84 C34.8333364,0.84 35.4566635,0.8999994 36.09,1.02 C36.7233365,1.1400006 37.2999974,1.3599984 37.82,1.68 C38.3400026,2.0000016 38.7633317,2.4399972 39.09,3 C39.4166683,3.5600028 39.58,4.273329 39.58,5.14 C39.58,5.9933376 39.4266682,6.7133304 39.12,7.3 C38.8133318,7.8866696 38.4066692,8.3633315 37.9,8.73 C37.3933308,9.0966685 36.8133366,9.3599992 36.16,9.52 C35.5066634,9.6800008 34.8333368,9.76 34.14,9.76 L33.81,9.76 C33.6566659,9.76 33.4966675,9.7566667 33.33,9.75 C33.1633325,9.7433333 33.0000008,9.7333334 32.84,9.72 C32.6799992,9.7066666 32.566667,9.6933334 32.5,9.68 L32.5,15 L30.84,15 L30.84,1.14 Z M34.26,2.28 C33.9133316,2.28 33.5800016,2.2866666 33.26,2.3 C32.9399984,2.3133334 32.6866676,2.3466664 32.5,2.4 L32.5,8.2 C32.566667,8.2266668 32.6733326,8.2433333 32.82,8.25 C32.9666674,8.2566667 33.1199992,8.2633333 33.28,8.27 C33.4400008,8.2766667 33.5933326,8.28 33.74,8.28 L34.06,8.28 C34.5133356,8.28 34.9633311,8.2366671 35.41,8.15 C35.8566689,8.0633329 36.2599982,7.9066678 36.62,7.68 C36.9800018,7.4533322 37.2699989,7.1333354 37.49,6.72 C37.7100011,6.3066646 37.82,5.7800032 37.82,5.14 C37.82,4.5933306 37.7166677,4.1366685 37.51,3.77 C37.3033323,3.4033315 37.0300017,3.1100011 36.69,2.89 C36.3499983,2.6699989 35.9666688,2.5133338 35.54,2.42 C35.1133312,2.3266662 34.6866688,2.28 34.26,2.28 Z M45.88,6.54 C45.479998,6.406666 45.1000018,6.34 44.74,6.34 C44.1666638,6.34 43.713335,6.4966651 43.38,6.81 C43.046665,7.1233349 42.8400004,7.5199976 42.76,8 L42.76,15 L41.16,15 L41.16,5 L42.28,5 L42.58,6.22 L42.66,6.22 C42.9133346,5.7666644 43.2166649,5.4166679 43.57,5.17 C43.9233351,4.9233321 44.3733306,4.8 44.92,4.8 C45.3066686,4.8 45.7399976,4.866666 46.22,5 L45.88,6.54 Z M47.4,10 C47.4,8.3066582 47.7766629,7.0100045 48.53,6.11 C49.2833371,5.2099955 50.3666596,4.76 51.78,4.76 C52.5266704,4.76 53.1766639,4.8833321 53.73,5.13 C54.2833361,5.3766679 54.7399982,5.7299977 55.1,6.19 C55.4600018,6.6500023 55.7266658,7.2033301 55.9,7.85 C56.0733342,8.4966699 56.16,9.2133294 56.16,10 C56.16,11.6933418 55.7833371,12.9899955 55.03,13.89 C54.2766629,14.7900045 53.1933404,15.24 51.78,15.24 C51.0333296,15.24 50.3833361,15.1166679 49.83,14.87 C49.2766639,14.6233321 48.8200018,14.2700023 48.46,13.81 C48.0999982,13.3499977 47.8333342,12.7966699 47.66,12.15 C47.4866658,11.5033301 47.4,10.7866706 47.4,10 Z M49.06,10 C49.06,10.5066692 49.1099995,10.993331 49.21,11.46 C49.3100005,11.926669 49.4666656,12.3333316 49.68,12.68 C49.8933344,13.0266684 50.1733316,13.3066656 50.52,13.52 C50.8666684,13.7333344 51.2866642,13.84 51.78,13.84 C53.5933424,13.8533334 54.5,12.5733462 54.5,10 C54.5,9.4799974 54.4500005,8.986669 54.35,8.52 C54.2499995,8.053331 54.0933344,7.6466684 53.88,7.3 C53.6666656,6.9533316 53.3866684,6.6766677 53.04,6.47 C52.6933316,6.2633323 52.2733358,6.16 51.78,6.16 C49.9666576,6.1466666 49.06,7.4266538 49.06,10 Z M66.38,5 L66.38,15 L64.78,15 L64.78,6.4 L60.74,6.4 L60.74,15 L59.14,15 L59.14,6.4 L57.58,6.4 L57.58,5 L59.14,5 L59.14,4.44 C59.14,3.1866604 59.4499969,2.2766695 60.07,1.71 C60.6900031,1.1433305 61.599994,0.86 62.8,0.86 C63.5866706,0.86 64.2866636,0.9366659 64.9,1.09 C65.5133364,1.2433341 65.9933316,1.4266656 66.34,1.64 L65.8,2.92 C65.4399982,2.6933322 65.0133358,2.5266672 64.52,2.42 C64.0266642,2.3133328 63.5000028,2.26 62.94,2.26 C62.4466642,2.26 62.0566681,2.3166661 61.77,2.43 C61.4833319,2.5433339 61.2633341,2.7166655 61.11,2.95 C60.9566659,3.1833345 60.8566669,3.4733316 60.81,3.82 C60.7633331,4.1666684 60.74,4.5599978 60.74,5 L66.38,5 Z" id="UX-Profi" fill="#000000"></path>
                <path d="M587.74,621.48 L583.38,621.48 L583.38,634 L581.72,634 L581.72,621.48 L577.36,621.48 L577.36,620 L587.74,620 L587.74,621.48 Z M589.98,624 L591.58,624 L591.58,634 L589.98,634 L589.98,624 Z M589.64,620.96 C589.64,620.653332 589.743332,620.390001 589.95,620.17 C590.156668,619.949999 590.419998,619.84 590.74,619.84 C591.060002,619.84 591.333332,619.949999 591.56,620.17 C591.786668,620.390001 591.9,620.653332 591.9,620.96 C591.9,621.266668 591.786668,621.519999 591.56,621.72 C591.333332,621.920001 591.060002,622.02 590.74,622.02 C590.419998,622.02 590.156668,621.920001 589.95,621.72 C589.743332,621.519999 589.64,621.266668 589.64,620.96 Z M600.86,634 L600.86,628.34 C600.86,627.806664 600.836667,627.343335 600.79,626.95 C600.743333,626.556665 600.653334,626.226668 600.52,625.96 C600.386666,625.693332 600.196668,625.493334 599.95,625.36 C599.703332,625.226666 599.380002,625.16 598.98,625.16 C598.366664,625.16 597.856669,625.346665 597.45,625.72 C597.043331,626.093335 596.760001,626.559997 596.6,627.12 L596.6,634 L595,634 L595,624 L596.12,624 L596.42,625.22 L596.5,625.22 C596.860002,624.793331 597.276664,624.443335 597.75,624.17 C598.223336,623.896665 598.839996,623.76 599.6,623.76 C600.240003,623.76 600.763331,623.883332 601.17,624.13 C601.576669,624.376668 601.893332,624.806664 602.12,625.42 C602.426668,624.899997 602.849997,624.493335 603.39,624.2 C603.930003,623.906665 604.539997,623.76 605.22,623.76 C605.780003,623.76 606.253331,623.823333 606.64,623.95 C607.026669,624.076667 607.346665,624.299998 607.6,624.62 C607.853335,624.940002 608.036666,625.373331 608.15,625.92 C608.263334,626.466669 608.32,627.159996 608.32,628 L608.32,634 L606.72,634 L606.72,627.98 C606.72,627.499998 606.696667,627.083335 606.65,626.73 C606.603333,626.376665 606.510001,626.083334 606.37,625.85 C606.229999,625.616665 606.036668,625.443334 605.79,625.33 C605.543332,625.216666 605.220002,625.16 604.82,625.16 C604.15333,625.16 603.633335,625.346665 603.26,625.72 C602.886665,626.093335 602.620001,626.626663 602.46,627.32 L602.46,634 L600.86,634 Z M618.54,633.2 C618.139998,633.520002 617.63667,633.773332 617.03,633.96 C616.42333,634.146668 615.780003,634.24 615.1,634.24 C614.339996,634.24 613.680003,634.116668 613.12,633.87 C612.559997,633.623332 612.100002,633.270002 611.74,632.81 C611.379998,632.349998 611.113334,631.800003 610.94,631.16 C610.766666,630.519997 610.68,629.800004 610.68,629 C610.68,627.293325 611.059996,625.993338 611.82,625.1 C612.580004,624.206662 613.66666,623.76 615.08,623.76 C615.533336,623.76 615.986664,623.81 616.44,623.91 C616.893336,624.010001 617.299998,624.199999 617.66,624.48 C618.020002,624.760001 618.313332,625.156664 618.54,625.67 C618.766668,626.183336 618.88,626.859996 618.88,627.7 C618.88,628.140002 618.84,628.626664 618.76,629.16 L612.34,629.16 C612.34,629.74667 612.399999,630.266664 612.52,630.72 C612.640001,631.173336 612.826665,631.556665 613.08,631.87 C613.333335,632.183335 613.663331,632.423333 614.07,632.59 C614.476669,632.756668 614.97333,632.84 615.56,632.84 C616.013336,632.84 616.466664,632.760001 616.92,632.6 C617.373336,632.439999 617.713332,632.253334 617.94,632.04 L618.54,633.2 Z M615.1,625.16 C614.313329,625.16 613.683336,625.366665 613.21,625.78 C612.736664,626.193335 612.453334,626.899995 612.36,627.9 L617.32,627.9 C617.32,626.886662 617.126669,626.176669 616.74,625.77 C616.353331,625.363331 615.80667,625.16 615.1,625.16 Z" id="Time" fill="#000000"></path>
            </g>
            <path d="M135,527 L246,527 L246,374 L135,374 L135,527 Z M134,373 L247,373 L247,528 L134,528 L134,373 Z" id="Rectangle-14-Copy-2" fill="#979797" fill-rule="nonzero"></path>
            <g id="Rectangle-14">
                <use fill="black" fill-opacity="1" filter="url(#filter-3)" xlink:href="#path-2"></use>
                <use fill="url(#linearGradient-1)" fill-rule="evenodd" xlink:href="#path-2"></use>
            </g>
            <g id="Rectangle-14-Copy-4">
                <use fill="black" fill-opacity="1" filter="url(#filter-5)" xlink:href="#path-4"></use>
                <use fill="#EDEDED" fill-rule="evenodd" xlink:href="#path-4"></use>
            </g>
            <circle id="Oval-5" fill="#FF0000" cx="410" cy="126" r="3"></circle>
            <circle id="Oval-5-Copy" fill="#D8D8D8" cx="420" cy="126" r="3"></circle>
            <circle id="Oval-5-Copy-2" fill="#0CC745" cx="430" cy="126" r="3"></circle>
            <rect id="Rectangle-6" fill="#FFFFFF" x="407" y="135" width="135" height="11" rx="5"></rect>
            <polygon id="Rectangle-14-Copy-3" fill="url(#linearGradient-6)" points="101.5 353.71875 130 370 130 525 101.5 508.71875"></polygon>
            <g id="Group-3" transform="translate(231.000000, 254.000000)">
                <g id="Rectangle-14-Copy" transform="translate(69.500000, 46.000000) rotate(90.000000) translate(-69.500000, -46.000000) ">
                    <use fill="black" fill-opacity="1" filter="url(#filter-8)" xlink:href="#path-7"></use>
                    <use fill="#FFFFFF" fill-rule="evenodd" xlink:href="#path-7"></use>
                </g>
                <g id="Rectangle-14-Copy" transform="translate(69.000000, 45.000000) rotate(90.000000) translate(-69.000000, -45.000000) ">
                    <use fill="black" fill-opacity="1" filter="url(#filter-10)" xlink:href="#path-9"></use>
                    <use fill="#8694DD" fill-rule="evenodd" xlink:href="#path-9"></use>
                </g>
                <rect id="Rectangle-5" fill="#000000" opacity="0.100000001" x="10" y="72" width="27" height="11"></rect>
                <rect id="Rectangle-5-Copy" fill="#000000" opacity="0.100000001" x="102" y="11" width="27" height="21"></rect>
                <rect id="Rectangle-5-Copy-2" fill="#000000" opacity="0.100000001" x="102" y="56" width="27" height="21"></rect>
                <rect id="Rectangle-5-Copy-3" fill="#000000" opacity="0.100000001" x="10" y="11" width="27" height="11"></rect>
                <polygon id="Rectangle-5-Copy-4" fill="#000000" opacity="0.100000001" points="27 24 98 24 98 70 27 70"></polygon>
                <circle id="Oval-4" fill="#D8D8D8" cx="67.5" cy="45.5" r="19.5"></circle>
                <polygon id="Triangle-2" fill="#676767" transform="translate(70.000000, 46.000000) rotate(90.000000) translate(-70.000000, -46.000000) " points="70 40 80 52 60 52"></polygon>
            </g>
            <path d="M145,387.5 L149,387.5 L149,386.5 L145,386.5 L145,387.5 Z M153,387.5 L157,387.5 L157,386.5 L153,386.5 L153,387.5 Z M161,387.5 L165,387.5 L165,386.5 L161,386.5 L161,387.5 Z M169,387.5 L173,387.5 L173,386.5 L169,386.5 L169,387.5 Z M177,387.5 L181,387.5 L181,386.5 L177,386.5 L177,387.5 Z M185,387.5 L189,387.5 L189,386.5 L185,386.5 L185,387.5 Z M193,387.5 L197,387.5 L197,386.5 L193,386.5 L193,387.5 Z M201,387.5 L205,387.5 L205,386.5 L201,386.5 L201,387.5 Z M209,387.5 L213,387.5 L213,386.5 L209,386.5 L209,387.5 Z M217,387.5 L221,387.5 L221,386.5 L217,386.5 L217,387.5 Z M225,387.5 L229,387.5 L229,386.5 L225,386.5 L225,387.5 Z" id="Path-18" fill="#979797" fill-rule="nonzero"></path>
            <path d="M145,396.5 L149,396.5 L149,395.5 L145,395.5 L145,396.5 Z M153,396.5 L157,396.5 L157,395.5 L153,395.5 L153,396.5 Z M161,396.5 L165,396.5 L165,395.5 L161,395.5 L161,396.5 Z M169,396.5 L173,396.5 L173,395.5 L169,395.5 L169,396.5 Z M177,396.5 L181,396.5 L181,395.5 L177,395.5 L177,396.5 Z M185,396.5 L189,396.5 L189,395.5 L185,395.5 L185,396.5 Z M193,396.5 L197,396.5 L197,395.5 L193,395.5 L193,396.5 Z M201,396.5 L205,396.5 L205,395.5 L201,395.5 L201,396.5 Z M209,396.5 L213,396.5 L213,395.5 L209,395.5 L209,396.5 Z M217,396.5 L221,396.5 L221,395.5 L217,395.5 L217,396.5 Z M225,396.5 L229,396.5 L229,395.5 L225,395.5 L225,396.5 Z" id="Path-18-Copy-20" fill="#979797" fill-rule="nonzero"></path>
            <path d="M145,404.5 L149,404.5 L149,403.5 L145,403.5 L145,404.5 Z M153,404.5 L157,404.5 L157,403.5 L153,403.5 L153,404.5 Z M161,404.5 L165,404.5 L165,403.5 L161,403.5 L161,404.5 Z M169,404.5 L173,404.5 L173,403.5 L169,403.5 L169,404.5 Z M177,404.5 L181,404.5 L181,403.5 L177,403.5 L177,404.5 Z M185,404.5 L189,404.5 L189,403.5 L185,403.5 L185,404.5 Z M193,404.5 L197,404.5 L197,403.5 L193,403.5 L193,404.5 Z M201,404.5 L205,404.5 L205,403.5 L201,403.5 L201,404.5 Z M209,404.5 L213,404.5 L213,403.5 L209,403.5 L209,404.5 Z M217,404.5 L221,404.5 L221,403.5 L217,403.5 L217,404.5 Z M225,404.5 L229,404.5 L229,403.5 L225,403.5 L225,404.5 Z" id="Path-18-Copy-21" fill="#979797" fill-rule="nonzero"></path>
            <path d="M145,412.5 L149,412.5 L149,411.5 L145,411.5 L145,412.5 Z M153,412.5 L157,412.5 L157,411.5 L153,411.5 L153,412.5 Z M161,412.5 L165,412.5 L165,411.5 L161,411.5 L161,412.5 Z M169,412.5 L173,412.5 L173,411.5 L169,411.5 L169,412.5 Z M177,412.5 L181,412.5 L181,411.5 L177,411.5 L177,412.5 Z M185,412.5 L189,412.5 L189,411.5 L185,411.5 L185,412.5 Z M193,412.5 L197,412.5 L197,411.5 L193,411.5 L193,412.5 Z M201,412.5 L205,412.5 L205,411.5 L201,411.5 L201,412.5 Z M209,412.5 L213,412.5 L213,411.5 L209,411.5 L209,412.5 Z M217,412.5 L221,412.5 L221,411.5 L217,411.5 L217,412.5 Z M225,412.5 L229,412.5 L229,411.5 L225,411.5 L225,412.5 Z" id="Path-18-Copy-22" fill="#979797" fill-rule="nonzero"></path>
            <path d="M145,420.5 L149,420.5 L149,419.5 L145,419.5 L145,420.5 Z M153,420.5 L157,420.5 L157,419.5 L153,419.5 L153,420.5 Z M161,420.5 L165,420.5 L165,419.5 L161,419.5 L161,420.5 Z M169,420.5 L173,420.5 L173,419.5 L169,419.5 L169,420.5 Z M177,420.5 L181,420.5 L181,419.5 L177,419.5 L177,420.5 Z M185,420.5 L189,420.5 L189,419.5 L185,419.5 L185,420.5 Z M193,420.5 L197,420.5 L197,419.5 L193,419.5 L193,420.5 Z M201,420.5 L205,420.5 L205,419.5 L201,419.5 L201,420.5 Z M209,420.5 L213,420.5 L213,419.5 L209,419.5 L209,420.5 Z M217,420.5 L221,420.5 L221,419.5 L217,419.5 L217,420.5 Z M225,420.5 L229,420.5 L229,419.5 L225,419.5 L225,420.5 Z" id="Path-18-Copy-23" fill="#979797" fill-rule="nonzero"></path>
            <path d="M145,428.5 L149,428.5 L149,427.5 L145,427.5 L145,428.5 Z M153,428.5 L157,428.5 L157,427.5 L153,427.5 L153,428.5 Z M161,428.5 L165,428.5 L165,427.5 L161,427.5 L161,428.5 Z M169,428.5 L173,428.5 L173,427.5 L169,427.5 L169,428.5 Z M177,428.5 L181,428.5 L181,427.5 L177,427.5 L177,428.5 Z M185,428.5 L189,428.5 L189,427.5 L185,427.5 L185,428.5 Z M193,428.5 L197,428.5 L197,427.5 L193,427.5 L193,428.5 Z M201,428.5 L205,428.5 L205,427.5 L201,427.5 L201,428.5 Z M209,428.5 L213,428.5 L213,427.5 L209,427.5 L209,428.5 Z M217,428.5 L221,428.5 L221,427.5 L217,427.5 L217,428.5 Z M225,428.5 L229,428.5 L229,427.5 L225,427.5 L225,428.5 Z" id="Path-18-Copy-24" fill="#979797" fill-rule="nonzero"></path>
            <path d="M145,436.5 L149,436.5 L149,435.5 L145,435.5 L145,436.5 Z M153,436.5 L157,436.5 L157,435.5 L153,435.5 L153,436.5 Z M161,436.5 L165,436.5 L165,435.5 L161,435.5 L161,436.5 Z M169,436.5 L173,436.5 L173,435.5 L169,435.5 L169,436.5 Z M177,436.5 L181,436.5 L181,435.5 L177,435.5 L177,436.5 Z M185,436.5 L189,436.5 L189,435.5 L185,435.5 L185,436.5 Z M193,436.5 L197,436.5 L197,435.5 L193,435.5 L193,436.5 Z M201,436.5 L205,436.5 L205,435.5 L201,435.5 L201,436.5 Z M209,436.5 L213,436.5 L213,435.5 L209,435.5 L209,436.5 Z M217,436.5 L221,436.5 L221,435.5 L217,435.5 L217,436.5 Z M225,436.5 L229,436.5 L229,435.5 L225,435.5 L225,436.5 Z" id="Path-18-Copy-25" fill="#979797" fill-rule="nonzero"></path>
            <path d="M145,444.5 L149,444.5 L149,443.5 L145,443.5 L145,444.5 Z M153,444.5 L157,444.5 L157,443.5 L153,443.5 L153,444.5 Z M161,444.5 L165,444.5 L165,443.5 L161,443.5 L161,444.5 Z M169,444.5 L173,444.5 L173,443.5 L169,443.5 L169,444.5 Z M177,444.5 L181,444.5 L181,443.5 L177,443.5 L177,444.5 Z M185,444.5 L189,444.5 L189,443.5 L185,443.5 L185,444.5 Z M193,444.5 L197,444.5 L197,443.5 L193,443.5 L193,444.5 Z M201,444.5 L205,444.5 L205,443.5 L201,443.5 L201,444.5 Z M209,444.5 L213,444.5 L213,443.5 L209,443.5 L209,444.5 Z M217,444.5 L221,444.5 L221,443.5 L217,443.5 L217,444.5 Z M225,444.5 L229,444.5 L229,443.5 L225,443.5 L225,444.5 Z" id="Path-18-Copy-26" fill="#979797" fill-rule="nonzero"></path>
            <path d="M145,452.5 L149,452.5 L149,451.5 L145,451.5 L145,452.5 Z M153,452.5 L157,452.5 L157,451.5 L153,451.5 L153,452.5 Z M161,452.5 L165,452.5 L165,451.5 L161,451.5 L161,452.5 Z M169,452.5 L173,452.5 L173,451.5 L169,451.5 L169,452.5 Z M177,452.5 L181,452.5 L181,451.5 L177,451.5 L177,452.5 Z M185,452.5 L189,452.5 L189,451.5 L185,451.5 L185,452.5 Z M193,452.5 L197,452.5 L197,451.5 L193,451.5 L193,452.5 Z M201,452.5 L205,452.5 L205,451.5 L201,451.5 L201,452.5 Z M209,452.5 L213,452.5 L213,451.5 L209,451.5 L209,452.5 Z M217,452.5 L221,452.5 L221,451.5 L217,451.5 L217,452.5 Z M225,452.5 L229,452.5 L229,451.5 L225,451.5 L225,452.5 Z" id="Path-18-Copy-27" fill="#979797" fill-rule="nonzero"></path>
            <path d="M145,460.5 L149,460.5 L149,459.5 L145,459.5 L145,460.5 Z M153,460.5 L157,460.5 L157,459.5 L153,459.5 L153,460.5 Z M161,460.5 L165,460.5 L165,459.5 L161,459.5 L161,460.5 Z M169,460.5 L173,460.5 L173,459.5 L169,459.5 L169,460.5 Z M177,460.5 L181,460.5 L181,459.5 L177,459.5 L177,460.5 Z M185,460.5 L189,460.5 L189,459.5 L185,459.5 L185,460.5 Z M193,460.5 L197,460.5 L197,459.5 L193,459.5 L193,460.5 Z M201,460.5 L205,460.5 L205,459.5 L201,459.5 L201,460.5 Z M209,460.5 L213,460.5 L213,459.5 L209,459.5 L209,460.5 Z M217,460.5 L221,460.5 L221,459.5 L217,459.5 L217,460.5 Z M225,460.5 L229,460.5 L229,459.5 L225,459.5 L225,460.5 Z" id="Path-18-Copy-28" fill="#979797" fill-rule="nonzero"></path>
            <path d="M145,468.5 L149,468.5 L149,467.5 L145,467.5 L145,468.5 Z M153,468.5 L157,468.5 L157,467.5 L153,467.5 L153,468.5 Z M161,468.5 L165,468.5 L165,467.5 L161,467.5 L161,468.5 Z M169,468.5 L173,468.5 L173,467.5 L169,467.5 L169,468.5 Z M177,468.5 L181,468.5 L181,467.5 L177,467.5 L177,468.5 Z M185,468.5 L189,468.5 L189,467.5 L185,467.5 L185,468.5 Z M193,468.5 L197,468.5 L197,467.5 L193,467.5 L193,468.5 Z M201,468.5 L205,468.5 L205,467.5 L201,467.5 L201,468.5 Z M209,468.5 L213,468.5 L213,467.5 L209,467.5 L209,468.5 Z M217,468.5 L221,468.5 L221,467.5 L217,467.5 L217,468.5 Z M225,468.5 L229,468.5 L229,467.5 L225,467.5 L225,468.5 Z" id="Path-18-Copy-29" fill="#979797" fill-rule="nonzero"></path>
            <path d="M145,476.5 L149,476.5 L149,475.5 L145,475.5 L145,476.5 Z M153,476.5 L157,476.5 L157,475.5 L153,475.5 L153,476.5 Z M161,476.5 L165,476.5 L165,475.5 L161,475.5 L161,476.5 Z M169,476.5 L173,476.5 L173,475.5 L169,475.5 L169,476.5 Z M177,476.5 L181,476.5 L181,475.5 L177,475.5 L177,476.5 Z M185,476.5 L189,476.5 L189,475.5 L185,475.5 L185,476.5 Z M193,476.5 L197,476.5 L197,475.5 L193,475.5 L193,476.5 Z M201,476.5 L205,476.5 L205,475.5 L201,475.5 L201,476.5 Z M209,476.5 L213,476.5 L213,475.5 L209,475.5 L209,476.5 Z M217,476.5 L221,476.5 L221,475.5 L217,475.5 L217,476.5 Z M225,476.5 L229,476.5 L229,475.5 L225,475.5 L225,476.5 Z" id="Path-18-Copy-30" fill="#979797" fill-rule="nonzero"></path>
            <path d="M145,484.5 L149,484.5 L149,483.5 L145,483.5 L145,484.5 Z M153,484.5 L157,484.5 L157,483.5 L153,483.5 L153,484.5 Z M161,484.5 L165,484.5 L165,483.5 L161,483.5 L161,484.5 Z M169,484.5 L173,484.5 L173,483.5 L169,483.5 L169,484.5 Z M177,484.5 L181,484.5 L181,483.5 L177,483.5 L177,484.5 Z M185,484.5 L189,484.5 L189,483.5 L185,483.5 L185,484.5 Z M193,484.5 L197,484.5 L197,483.5 L193,483.5 L193,484.5 Z M201,484.5 L205,484.5 L205,483.5 L201,483.5 L201,484.5 Z M209,484.5 L213,484.5 L213,483.5 L209,483.5 L209,484.5 Z M217,484.5 L221,484.5 L221,483.5 L217,483.5 L217,484.5 Z M225,484.5 L229,484.5 L229,483.5 L225,483.5 L225,484.5 Z" id="Path-18-Copy-31" fill="#979797" fill-rule="nonzero"></path>
            <path d="M145,492.5 L149,492.5 L149,491.5 L145,491.5 L145,492.5 Z M153,492.5 L157,492.5 L157,491.5 L153,491.5 L153,492.5 Z M161,492.5 L165,492.5 L165,491.5 L161,491.5 L161,492.5 Z M169,492.5 L173,492.5 L173,491.5 L169,491.5 L169,492.5 Z M177,492.5 L181,492.5 L181,491.5 L177,491.5 L177,492.5 Z M185,492.5 L189,492.5 L189,491.5 L185,491.5 L185,492.5 Z M193,492.5 L197,492.5 L197,491.5 L193,491.5 L193,492.5 Z M201,492.5 L205,492.5 L205,491.5 L201,491.5 L201,492.5 Z M209,492.5 L213,492.5 L213,491.5 L209,491.5 L209,492.5 Z M217,492.5 L221,492.5 L221,491.5 L217,491.5 L217,492.5 Z M225,492.5 L229,492.5 L229,491.5 L225,491.5 L225,492.5 Z" id="Path-18-Copy-32" fill="#979797" fill-rule="nonzero"></path>
            <path d="M145,500.5 L149,500.5 L149,499.5 L145,499.5 L145,500.5 Z M153,500.5 L157,500.5 L157,499.5 L153,499.5 L153,500.5 Z M161,500.5 L165,500.5 L165,499.5 L161,499.5 L161,500.5 Z M169,500.5 L173,500.5 L173,499.5 L169,499.5 L169,500.5 Z M177,500.5 L181,500.5 L181,499.5 L177,499.5 L177,500.5 Z M185,500.5 L189,500.5 L189,499.5 L185,499.5 L185,500.5 Z M193,500.5 L197,500.5 L197,499.5 L193,499.5 L193,500.5 Z M201,500.5 L205,500.5 L205,499.5 L201,499.5 L201,500.5 Z M209,500.5 L213,500.5 L213,499.5 L209,499.5 L209,500.5 Z M217,500.5 L221,500.5 L221,499.5 L217,499.5 L217,500.5 Z M225,500.5 L229,500.5 L229,499.5 L225,499.5 L225,500.5 Z" id="Path-18-Copy-33" fill="#979797" fill-rule="nonzero"></path>
            <path d="M145,508.5 L149,508.5 L149,507.5 L145,507.5 L145,508.5 Z M153,508.5 L157,508.5 L157,507.5 L153,507.5 L153,508.5 Z M161,508.5 L165,508.5 L165,507.5 L161,507.5 L161,508.5 Z M169,508.5 L173,508.5 L173,507.5 L169,507.5 L169,508.5 Z M177,508.5 L181,508.5 L181,507.5 L177,507.5 L177,508.5 Z M185,508.5 L189,508.5 L189,507.5 L185,507.5 L185,508.5 Z M193,508.5 L197,508.5 L197,507.5 L193,507.5 L193,508.5 Z M201,508.5 L205,508.5 L205,507.5 L201,507.5 L201,508.5 Z M209,508.5 L213,508.5 L213,507.5 L209,507.5 L209,508.5 Z M217,508.5 L221,508.5 L221,507.5 L217,507.5 L217,508.5 Z M225,508.5 L229,508.5 L229,507.5 L225,507.5 L225,508.5 Z" id="Path-18-Copy-34" fill="#979797" fill-rule="nonzero"></path>
            <path d="M417.16,177.52 L419.96,177.52 L419.96,167.84 L420.16,166.66 L419.36,167.6 L417.16,169.18 L416.4,168.16 L420.8,164.76 L421.52,164.76 L421.52,177.52 L424.26,177.52 L424.26,179 L417.16,179 L417.16,177.52 Z M426.88,178.08 C426.88,177.719998 426.983332,177.436668 427.19,177.23 C427.396668,177.023332 427.673332,176.92 428.02,176.92 C428.380002,176.92 428.666666,177.023332 428.88,177.23 C429.093334,177.436668 429.2,177.719998 429.2,178.08 C429.2,178.426668 429.093334,178.706666 428.88,178.92 C428.666666,179.133334 428.380002,179.24 428.02,179.24 C427.673332,179.24 427.396668,179.133334 427.19,178.92 C426.983332,178.706666 426.88,178.426668 426.88,178.08 Z" id="1." fill="#A1A1A1"></path>
            <path d="M423.92,200.18 C423.92,200.88667 423.790001,201.609996 423.53,202.35 C423.269999,203.090004 422.930002,203.83333 422.51,204.58 C422.089998,205.32667 421.620003,206.056663 421.1,206.77 C420.579997,207.483337 420.060003,208.159997 419.54,208.8 L418.56,209.66 L418.56,209.74 L419.84,209.52 L424.2,209.52 L424.2,211 L416.24,211 L416.24,210.42 C416.533335,210.113332 416.886665,209.733336 417.3,209.28 C417.713335,208.826664 418.143331,208.323336 418.59,207.77 C419.036669,207.216664 419.476665,206.630003 419.91,206.01 C420.343336,205.389997 420.736665,204.760003 421.09,204.12 C421.443335,203.479997 421.726666,202.84667 421.94,202.22 C422.153334,201.59333 422.26,201.000003 422.26,200.44 C422.26,199.786663 422.073335,199.243336 421.7,198.81 C421.326665,198.376665 420.760004,198.16 420,198.16 C419.493331,198.16 419.000002,198.263332 418.52,198.47 C418.039998,198.676668 417.626668,198.913332 417.28,199.18 L416.62,198.04 C417.086669,197.639998 417.639997,197.326668 418.28,197.1 C418.920003,196.873332 419.606663,196.76 420.34,196.76 C420.913336,196.76 421.419998,196.843333 421.86,197.01 C422.300002,197.176668 422.673332,197.413332 422.98,197.72 C423.286668,198.026668 423.519999,198.389998 423.68,198.81 C423.840001,199.230002 423.92,199.686664 423.92,200.18 Z M426.88,210.08 C426.88,209.719998 426.983332,209.436668 427.19,209.23 C427.396668,209.023332 427.673332,208.92 428.02,208.92 C428.380002,208.92 428.666666,209.023332 428.88,209.23 C429.093334,209.436668 429.2,209.719998 429.2,210.08 C429.2,210.426668 429.093334,210.706666 428.88,210.92 C428.666666,211.133334 428.380002,211.24 428.02,211.24 C427.673332,211.24 427.396668,211.133334 427.19,210.92 C426.983332,210.706666 426.88,210.426668 426.88,210.08 Z" id="2." fill="#A1A1A1"></path>
            <path d="M419.68,241.84 C420.133336,241.84 420.553331,241.773334 420.94,241.64 C421.326669,241.506666 421.659999,241.310001 421.94,241.05 C422.220001,240.789999 422.439999,240.480002 422.6,240.12 C422.760001,239.759998 422.84,239.366669 422.84,238.94 C422.84,238.006662 422.563336,237.313336 422.01,236.86 C421.456664,236.406664 420.693338,236.18 419.72,236.18 L418.24,236.18 L418.24,235.6 L421.12,231.16 L422.04,230.28 L420.74,230.48 L416.78,230.48 L416.78,229 L423.92,229 L423.92,229.58 L420.74,234.36 L420.04,234.94 L420.04,234.98 L420.72,234.84 C421.253336,234.853333 421.746664,234.949999 422.2,235.13 C422.653336,235.310001 423.046665,235.569998 423.38,235.91 C423.713335,236.250002 423.973332,236.656664 424.16,237.13 C424.346668,237.603336 424.44,238.139997 424.44,238.74 C424.44,239.460004 424.313335,240.099997 424.06,240.66 C423.806665,241.220003 423.463335,241.689998 423.03,242.07 C422.596664,242.450002 422.08667,242.739999 421.5,242.94 C420.91333,243.140001 420.293337,243.24 419.64,243.24 C419.039997,243.24 418.500002,243.193334 418.02,243.1 C417.539998,243.006666 417.120002,242.886667 416.76,242.74 L417.18,241.32 C417.486668,241.466667 417.849998,241.59 418.27,241.69 C418.690002,241.79 419.159997,241.84 419.68,241.84 Z M426.88,242.08 C426.88,241.719998 426.983332,241.436668 427.19,241.23 C427.396668,241.023332 427.673332,240.92 428.02,240.92 C428.380002,240.92 428.666666,241.023332 428.88,241.23 C429.093334,241.436668 429.2,241.719998 429.2,242.08 C429.2,242.426668 429.093334,242.706666 428.88,242.92 C428.666666,243.133334 428.380002,243.24 428.02,243.24 C427.673332,243.24 427.396668,243.133334 427.19,242.92 C426.983332,242.706666 426.88,242.426668 426.88,242.08 Z" id="3." fill="#A1A1A1"></path>
            <path d="M425.48,272.7 L423.12,272.7 L423.12,277 L421.56,277 L421.56,272.7 L415.4,272.7 L415.4,272.04 L422.04,262.78 L423.12,262.78 L423.12,271.3 L425.48,271.3 L425.48,272.7 Z M421.56,266.94 L421.76,265.3 L421.7,265.3 L421,266.66 L418.18,270.48 L417.22,271.46 L418.62,271.3 L421.56,271.3 L421.56,266.94 Z M426.88,276.08 C426.88,275.719998 426.983332,275.436668 427.19,275.23 C427.396668,275.023332 427.673332,274.92 428.02,274.92 C428.380002,274.92 428.666666,275.023332 428.88,275.23 C429.093334,275.436668 429.2,275.719998 429.2,276.08 C429.2,276.426668 429.093334,276.706666 428.88,276.92 C428.666666,277.133334 428.380002,277.24 428.02,277.24 C427.673332,277.24 427.396668,277.133334 427.19,276.92 C426.983332,276.706666 426.88,276.426668 426.88,276.08 Z" id="4." fill="#A1A1A1"></path>
            <rect id="Rectangle-7" fill="#D8D8D8" x="441" y="161" width="34" height="21"></rect>
            <rect id="Rectangle-7-Copy-2" fill="#D8D8D8" x="441" y="193" width="34" height="21"></rect>
            <rect id="Rectangle-7-Copy-4" fill="#D8D8D8" x="441" y="225" width="34" height="21"></rect>
            <rect id="Rectangle-7-Copy-6" fill="#D8D8D8" x="441" y="259" width="34" height="21"></rect>
            <rect id="Rectangle-7-Copy" fill="#D8D8D8" x="508" y="161" width="22" height="21"></rect>
            <rect id="Rectangle-7-Copy-3" fill="#D8D8D8" x="508" y="193" width="22" height="21"></rect>
            <rect id="Rectangle-7-Copy-5" fill="#D8D8D8" x="508" y="225" width="22" height="21"></rect>
            <rect id="Rectangle-7-Copy-7" fill="#D8D8D8" x="508" y="259" width="22" height="21"></rect>
            <path d="M442,181 L474,181 L474,162 L442,162 L442,181 Z M441,161 L475,161 L475,182 L441,182 L441,161 Z" id="Rectangle-7" fill="#FFFFFF" fill-rule="nonzero"></path>
            <rect id="Rectangle-7-Copy-2" stroke="#FFFFFF" x="441.5" y="193.5" width="33" height="20"></rect>
            <rect id="Rectangle-7-Copy-4" stroke="#FFFFFF" x="441.5" y="225.5" width="33" height="20"></rect>
            <rect id="Rectangle-7-Copy-6" stroke="#FFFFFF" x="441.5" y="259.5" width="33" height="20"></rect>
            <rect id="Rectangle-7-Copy" stroke="#FFFFFF" x="508.5" y="161.5" width="21" height="20"></rect>
            <rect id="Rectangle-7-Copy-3" stroke="#FFFFFF" x="508.5" y="193.5" width="21" height="20"></rect>
            <rect id="Rectangle-7-Copy-5" stroke="#FFFFFF" x="508.5" y="225.5" width="21" height="20"></rect>
            <rect id="Rectangle-7-Copy-7" stroke="#FFFFFF" x="508.5" y="259.5" width="21" height="20"></rect>
            <rect id="Rectangle-8" fill="#F4F4F4" x="449" y="168" width="10" height="11"></rect>
            <rect id="Rectangle-8-Copy-12" fill="#F4F4F4" x="514" y="166" width="10" height="11"></rect>
            <rect id="Rectangle-8-Copy-14" fill="#F4F4F4" x="514" y="230" width="10" height="11"></rect>
            <rect id="Rectangle-8-Copy-15" fill="#F4F4F4" x="514" y="264" width="10" height="11"></rect>
            <rect id="Rectangle-8-Copy-13" fill="#F4F4F4" x="514" y="198" width="10" height="11"></rect>
            <rect id="Rectangle-8-Copy-2" fill="#F4F4F4" x="447" y="200" width="10" height="11"></rect>
            <rect id="Rectangle-8-Copy-4" fill="#F4F4F4" x="447" y="238" width="10" height="3"></rect>
            <rect id="Rectangle-8-Copy-8" fill="#F4F4F4" x="447" y="273" width="10" height="3"></rect>
            <rect id="Rectangle-8-Copy-6" fill="#F4F4F4" x="447" y="229" width="10" height="3"></rect>
            <rect id="Rectangle-8-Copy-9" fill="#F4F4F4" x="447" y="264" width="10" height="3"></rect>
            <rect id="Rectangle-8-Copy" fill="#F4F4F4" x="461" y="164" width="10" height="11"></rect>
            <rect id="Rectangle-8-Copy-3" fill="#F4F4F4" x="459" y="198" width="10" height="11"></rect>
            <rect id="Rectangle-8-Copy-5" fill="#F4F4F4" x="459" y="238" width="10" height="3"></rect>
            <rect id="Rectangle-8-Copy-10" fill="#F4F4F4" x="459" y="273" width="10" height="3"></rect>
            <rect id="Rectangle-8-Copy-7" fill="#F4F4F4" x="459" y="229" width="10" height="3"></rect>
            <rect id="Rectangle-8-Copy-11" fill="#F4F4F4" x="459" y="264" width="10" height="3"></rect>
            <polygon id="Path-19-Copy" fill="#979797" fill-rule="nonzero" points="481 203.5 498.000674 203.5 498.000674 202.5 481 202.5"></polygon>
            <polygon id="Path-19-Copy-2" fill="#979797" fill-rule="nonzero" points="481 235.5 498.000674 235.5 498.000674 234.5 481 234.5"></polygon>
            <polygon id="Path-19-Copy-3" fill="#979797" fill-rule="nonzero" points="481 269.5 498.000674 269.5 498.000674 268.5 481 268.5"></polygon>
            <polygon id="Path-20-Copy" fill="#979797" fill-rule="nonzero" points="497.001847 207.429079 497.697372 208.147581 502.858557 203.15145 497.353553 197.646447 496.646447 198.353553 501.43276 203.139866"></polygon>
            <polygon id="Path-20-Copy-2" fill="#979797" fill-rule="nonzero" points="497.001847 239.429079 497.697372 240.147581 502.858557 235.15145 497.353553 229.646447 496.646447 230.353553 501.43276 235.139866"></polygon>
            <polygon id="Path-20-Copy-3" fill="#979797" fill-rule="nonzero" points="497.001847 273.429079 497.697372 274.147581 502.858557 269.15145 497.353553 263.646447 496.646447 264.353553 501.43276 269.139866"></polygon>
            <polygon id="Path-19" fill="#979797" fill-rule="nonzero" points="481 172.5 498.000674 172.5 498.000674 171.5 481 171.5"></polygon>
            <polygon id="Path-20" fill="#979797" fill-rule="nonzero" points="497.001847 176.429079 497.697372 177.147581 502.858557 172.15145 497.353553 166.646447 496.646447 167.353553 501.43276 172.139866"></polygon>
            <path d="M45.6827117,588.343226 C65.3892502,588.417908 78.6328995,587.284692 87.4289861,583.287357 C101.881404,576.719532 114.217179,566.750879 125.896001,553.042609 C134.616703,542.806496 140.775234,533.771341 153.905047,512.992962 C165.289458,494.976735 170.4935,487.207914 177.551177,478.339509 C186.731047,466.804438 195.972095,458.077042 206.329227,451.631866 C224.339317,440.424306 240.84703,434.050166 276.637356,422.870649 C301.070441,415.240967 311.304242,411.778497 323.642131,406.60817 C340.046541,399.733723 353.820932,391.943873 365.992006,382.200144 C389.125267,363.680478 408.766525,341.577314 442.840365,298.48052 C444.788251,296.016823 451.393579,287.646311 451.909533,286.99302 C455.495952,282.451969 458.246558,278.98178 460.916933,275.634449 C467.677107,267.160531 473.363356,260.185368 478.800897,253.738041 C484.00308,247.569779 488.887927,241.996326 493.605088,236.870037 C503.725825,225.871508 514.585299,215.455155 527.64054,203.975133 C532.510702,199.692595 537.547745,195.377044 543.964558,189.963533 C545.836261,188.384481 556.974485,179.028384 560.163802,176.330158 C578.287564,160.997095 590.001522,150.302988 601.134665,138.406804 C615.023141,123.566442 626.285442,108.367681 635.550372,91.361249 L626.768964,86.5772275 C617.929988,102.80179 607.168734,117.324375 593.833315,131.573774 C583.023965,143.123974 571.556529,153.593023 553.704976,168.695791 C550.532156,171.38006 539.401233,180.730024 537.516318,182.320222 C531.051686,187.774076 525.966435,192.130929 521.037046,196.465548 C507.735918,208.161789 496.630591,218.813963 486.246475,230.098713 C481.425261,235.338081 476.446833,241.018307 471.156585,247.290987 C465.65268,253.817002 459.912048,260.858875 453.09972,269.39817 C450.417413,272.760457 447.657537,276.242341 444.061865,280.795109 C443.543333,281.451664 436.940387,289.819157 434.995971,292.278466 C401.387145,334.787107 382.090426,356.502547 359.742369,374.393606 C348.359795,383.50609 335.378959,390.84716 319.77717,397.38526 C307.825232,402.39385 297.7904,405.789001 275.264482,412.823096 C237.071896,424.752876 220.006841,431.342224 201.045773,443.141571 C189.622528,450.250181 179.568979,459.744917 169.72657,472.11251 C162.366445,481.360958 157.031017,489.325918 145.522316,507.538839 C132.577369,528.024661 126.592095,536.805632 118.283955,546.557491 C107.495638,559.220512 96.2887135,568.27693 83.291717,574.183346 C76.3433445,577.340997 63.8277269,578.411918 45.7206086,578.343298 L45.6827117,588.343226 Z" id="Path-21" fill="url(#linearGradient-11)" fill-rule="nonzero"></path>
            <polygon id="Line-2" fill="#979797" fill-rule="nonzero" points="90 144 240.013422 144 240.013422 143 90 143"></polygon>
            <polygon id="Line-2-Copy-4" fill="#979797" fill-rule="nonzero" points="207.766225 88.5045047 358.081653 88.2509871 358.079967 87.2509885 207.764538 87.5045061"></polygon>
            <path d="M377,165 C374.96805,165 372.945029,165.074839 370.93364,165.223787 L371.081341,167.218326 C373.043592,167.073016 375.017346,167 377,167 L377,165 Z M364.881875,165.900528 C362.875024,166.201619 360.88483,166.577447 358.914417,167.026842 L359.35914,168.97677 C361.280635,168.538532 363.221468,168.172025 365.178617,167.878391 L364.881875,165.900528 Z M353.03611,168.60372 C351.099046,169.202816 349.187234,169.874422 347.30411,170.616837 L348.037653,172.477459 C349.873943,171.753508 351.73819,171.098611 353.627053,170.514423 L353.03611,168.60372 Z M341.747802,173.053106 C339.924698,173.935741 338.135835,174.88657 336.384783,175.903324 L337.389065,177.632896 C339.096803,176.641292 340.84138,175.714002 342.619314,174.853236 L341.747802,173.053106 Z M331.229789,179.162036 C329.559808,180.307798 327.933114,181.515769 326.353209,182.783139 L327.604674,184.343215 C329.14573,183.107008 330.732403,181.928757 332.36127,180.811203 L331.229789,179.162036 Z M321.730371,186.785847 C320.249525,188.168631 318.820635,189.606281 317.446936,191.095548 L318.917039,192.451571 C320.257026,190.998852 321.650851,189.596482 323.095356,188.247632 L321.730371,186.785847 Z M313.514507,195.689909 C312.255275,197.276804 311.055721,198.910197 309.918639,200.586579 L311.573802,201.70927 C312.682885,200.074167 313.852921,198.480967 315.081185,196.933098 L313.514507,195.689909 Z M306.703625,205.730668 C305.695411,207.486919 304.753327,209.280689 303.879625,211.108411 L305.684056,211.970981 C306.536107,210.188553 307.454863,208.439199 308.438133,206.7264 L306.703625,205.730668 Z M301.456964,216.712888 C300.724793,218.600145 300.063582,220.515767 299.475013,222.456325 L301.388919,223.036811 C301.962842,221.144542 302.607601,219.276584 303.321561,217.436268 L301.456964,216.712888 Z M297.924039,228.371291 C297.485979,230.344901 297.121604,232.337976 296.832068,234.347404 L298.811624,234.632637 C299.093993,232.672952 299.449334,230.72929 299.876522,228.804662 L297.924039,228.371291 Z M296.188386,240.432433 C296.063523,242.271434 296.000545,244.119923 296.000004,245.975846 L298.000003,245.976429 C298.000532,244.165522 298.061977,242.362024 298.183792,240.567916 L296.188386,240.432433 Z" id="Oval-6" fill="#979797" fill-rule="nonzero"></path>
            <path d="M209.303974,300.84478 C207.256047,300.84478 205.220873,300.955656 203.20388,301.175825 L203.420905,303.164015 C205.365866,302.951709 207.328591,302.84478 209.303974,302.84478 L209.303974,300.84478 Z M197.158773,302.174748 C195.167939,302.617593 193.205317,303.169141 191.277322,303.826477 L191.922728,305.719478 C193.781625,305.0857 195.673769,304.553958 197.593042,304.127031 L197.158773,302.174748 Z M185.592979,306.118026 C183.751398,306.979589 181.954615,307.941045 180.209396,308.997986 L181.245448,310.708715 C182.929815,309.688628 184.663672,308.760843 186.440493,307.929577 L185.592979,306.118026 Z M175.170069,312.424426 C173.552842,313.652348 171.996279,314.96658 170.506737,316.361424 L171.873784,317.821281 C173.313204,316.473373 174.817169,315.20355 176.379505,314.017305 L175.170069,312.424426 Z M166.242476,320.785645 C164.910243,322.316862 163.652474,323.917862 162.474478,325.58219 L164.106945,326.737635 C165.246413,325.127741 166.462928,323.579252 167.751326,322.098417 L166.242476,320.785645 Z M159.196747,330.738208 C158.194234,332.502425 157.276809,334.318867 156.44841,336.181005 L158.275748,336.993923 C159.077531,335.191614 159.965427,333.433637 160.935611,331.726314 L159.196747,330.738208 Z M154.25595,341.832576 C153.61495,343.756103 153.065739,345.714743 152.610893,347.702498 L154.560502,348.148616 C155.000952,346.223775 155.532741,344.327266 156.153368,342.464876 L154.25595,341.832576 Z M151.533021,353.739197 C151.273456,355.746168 151.10803,357.772674 151.038194,359.813656 L153.037024,359.882049 C153.104706,357.904012 153.265008,355.940286 153.516501,353.995724 L151.533021,353.739197 Z" id="Oval-6-Copy" fill="#979797" fill-rule="nonzero"></path>
            <polygon id="Line-2-Copy" fill="#979797" fill-rule="nonzero" points="168 128 330.003106 128 330.003106 127 168 127"></polygon>
            <polygon id="Line-2-Copy-2" fill="#979797" fill-rule="nonzero" points="323.973717 119 344.010309 119 344.010309 118 323.973717 118"></polygon>
            <polygon id="Line-2-Copy-5" fill="#979797" fill-rule="nonzero" points="356.973717 98 377.010309 98 377.010309 97 356.973717 97"></polygon>
            <polygon id="Line-2-Copy-6" fill="#979797" fill-rule="nonzero" points="365.973717 77 480 77 480 76 365.973717 76"></polygon>
            <polygon id="Line-2-Copy-3" fill="#979797" fill-rule="nonzero" points="296.973717 119 317.010309 119 317.010309 118 296.973717 118"></polygon>
            <polygon id="Path-23" fill="#979797" fill-rule="nonzero" transform="translate(380.998230, 166.313069) rotate(-90.000000) translate(-380.998230, -166.313069) " points="376.972194 162.216076 375.382298 163.429432 380.738149 170.447364 386.614162 163.466735 385.08408 162.178773 380.814585 167.250878"></polygon>
            <polygon id="Path-23-Copy" fill="#979797" fill-rule="nonzero" transform="translate(212.451768, 302.278530) rotate(-90.000000) translate(-212.451768, -302.278530) " points="209.50797 298.713397 207.889823 299.88881 212.242679 305.881223 217.013713 299.92637 215.452891 298.675837 212.320559 302.585381"></polygon>
            <path d="M132,232.5 C133.685566,232.5 135.364258,232.442471 137.034159,232.327929 L136.965728,231.330273 C135.318599,231.443253 133.662731,231.5 132,231.5 L132,232.5 Z M142.043267,231.809928 C143.709825,231.578967 145.364073,231.290555 147.003816,230.945492 L146.797888,229.966924 C145.180867,230.307206 143.549517,230.591626 141.905993,230.819395 L142.043267,231.809928 Z M151.89788,229.735282 C153.514031,229.27501 155.111842,228.758741 156.688904,228.187615 L156.348399,227.247373 C154.793258,227.81056 153.21766,228.319652 151.623977,228.773525 L151.89788,229.735282 Z M161.393586,226.293865 C162.928656,225.612235 164.438985,224.877374 165.922044,224.090799 L165.453493,223.207362 C163.99096,223.983051 162.501551,224.707733 160.987758,225.379915 L161.393586,226.293865 Z M170.266247,221.590288 C171.691335,220.703012 173.085263,219.76648 174.445511,218.782573 L173.859431,217.97232 C172.517898,218.94269 171.143161,219.866328 169.737707,220.74138 L170.266247,221.590288 Z M178.43872,215.677223 C179.726761,214.601752 180.977405,213.482007 182.188269,212.320185 L181.495925,211.598617 C180.301663,212.74451 179.068169,213.8489 177.797796,214.909619 L178.43872,215.677223 Z M185.731942,208.674502 C186.859033,207.431054 187.9429,206.149037 188.981403,204.830875 L188.195898,204.21202 C187.171648,205.51209 186.102652,206.776518 184.991019,208.002912 L185.731942,208.674502 Z M191.920584,200.826254 C192.86698,199.439895 193.76508,198.02111 194.613072,196.57243 L193.750053,196.067258 C192.913758,197.495955 192.028037,198.895184 191.094676,200.262449 L191.920584,200.826254 Z M197.011277,192.126399 C197.755826,190.622584 198.44796,189.092822 199.086241,187.539623 L198.161296,187.159521 C197.531872,188.69117 196.849334,190.19972 196.115103,191.682697 L197.011277,192.126399 Z M200.846051,182.788169 C201.372735,181.196144 201.8441,179.584647 202.259075,177.956052 L201.290039,177.709136 C200.88083,179.315097 200.416018,180.904191 199.896656,182.474084 L200.846051,182.788169 Z M203.336928,173.003901 C203.635443,171.355614 203.87713,169.694032 204.061253,168.021297 L203.067257,167.911884 C202.885672,169.561564 202.647322,171.200201 202.352935,172.825695 L203.336928,173.003901 Z M204.440443,162.965587 C204.479916,161.984568 204.499801,161.000853 204.499999,160.014823 C204.5,159.305387 204.490229,158.610015 204.470566,157.914114 L203.470965,157.942358 C203.490362,158.628822 203.5,159.314777 203.499999,160.014722 C203.499804,160.987313 203.480189,161.95769 203.441251,162.925383 L204.440443,162.965587 Z M204.155907,152.891541 C203.992877,151.216379 203.772246,149.55186 203.494724,147.900099 L202.508547,148.065793 C202.782235,149.694737 202.999823,151.336299 203.160609,152.988405 L204.155907,152.891541 Z M202.486209,142.960425 C202.09235,141.325369 201.641865,139.706855 201.135792,138.107243 L200.182369,138.408879 C200.681407,139.986256 201.125631,141.582272 201.514017,143.19461 L202.486209,142.960425 Z M199.441781,133.342059 C198.823798,131.779913 198.151629,130.240613 197.426679,128.726667 L196.524751,129.158553 C197.23965,130.651511 197.902495,132.169456 198.5119,133.709919 L199.441781,133.342059 Z M195.102963,124.277636 C194.274283,122.816912 193.395038,121.385483 192.467005,119.985887 L191.633575,120.538511 C192.548818,121.918819 193.415937,123.330507 194.233179,124.771071 L195.102963,124.277636 Z M189.527098,115.870532 C188.50414,114.538988 187.43531,113.243088 186.322722,111.985275 L185.573698,112.647818 C186.671022,113.888376 187.725185,115.166491 188.734098,116.479754 L189.527098,115.870532 Z M182.833455,108.306556 C181.636432,107.129325 180.399067,105.993708 179.123729,104.901928 L178.473407,105.661587 C179.731254,106.738394 180.951655,107.858441 182.132267,109.019533 L182.833455,108.306556 Z M175.189875,101.763073 C173.841902,100.761753 172.459655,99.8073822 171.045649,98.9018754 L170.506366,99.7439999 C171.9009,100.637038 173.264127,101.578276 174.593563,102.565826 L175.189875,101.763073 Z M166.747586,96.3539282 C165.27497,95.548258 163.774486,94.7939322 162.248664,94.0925024 L161.830979,95.0010941 C163.335662,95.6928068 164.815375,96.4366902 166.267621,97.2312157 L166.747586,96.3539282 Z M157.580374,92.1419014 C156.010693,91.549886 154.419651,91.012498 152.809676,90.5309136 L152.523097,91.4889702 C154.110691,91.9638597 155.679615,92.4937775 157.227482,93.0775655 L157.580374,92.1419014 Z M147.909702,89.251233 C146.274423,88.8850817 144.624083,88.5754724 142.960901,88.3232345 L142.810955,89.3119288 C144.451127,89.5606768 146.078602,89.8659967 147.691205,90.2270705 L147.909702,89.251233 Z M137.926185,87.7387458 C136.258481,87.6038162 134.581518,87.5258678 132.897232,87.5054387 L132.885103,88.5053652 C134.546515,88.5255168 136.200627,88.602403 137.845541,88.7354888 L137.926185,87.7387458 Z" id="Oval-9" fill="#979797" fill-rule="nonzero" transform="translate(168.249999, 160.002719) rotate(180.000000) translate(-168.249999, -160.002719) "></path>
        </g>
    </g>
</svg>