<?xml version="1.0" encoding="utf-8"?>
<!-- Generator: Adobe Illustrator 17.0.0, SVG Export Plug-In . SVG Version: 6.00 Build 0)  -->
<!DOCTYPE svg PUBLIC "-//W3C//DTD SVG 1.1//EN" "http://www.w3.org/Graphics/SVG/1.1/DTD/svg11.dtd">
<svg version="1.1" id="Слой_1" xmlns="http://www.w3.org/2000/svg" xmlns:xlink="http://www.w3.org/1999/xlink" x="0px" y="0px"
	 width="64px" height="64px" viewBox="0 0 64 64" enable-background="new 0 0 64 64" xml:space="preserve">
<path fill="#0C2637" d="M30.125,0.052c1.247,0,2.494,0,3.741,0c1.065,0.136,2.135,0.237,3.193,0.414
	c6.707,1.121,12.518,4.038,17.347,8.828c5.052,5.011,8.11,11.057,9.151,18.107c0.139,0.941,0.243,1.887,0.363,2.83
	c0,1.164,0,2.328,0,3.492c-0.04,0.22-0.088,0.439-0.12,0.661c-0.214,1.477-0.329,2.976-0.65,4.43
	c-3.775,17.078-20.544,27.965-37.582,24.426C4.062,58.772-6.692,34.426,4.631,15.624C9.791,7.056,17.46,2.01,27.361,0.417
	C28.278,0.27,29.203,0.172,30.125,0.052z M26.902,44.275c-1.343-0.284-2.649-0.498-3.919-0.843c-3.246-0.88-5.862-2.613-7.388-5.725
	c-0.883-1.8-1.235-3.732-1.387-5.712c-0.245-3.206,0.381-6.155,2.509-8.68c0.131-0.155,0.201-0.466,0.144-0.659
	c-0.561-1.914-0.484-3.815,0.047-5.714c0.407-1.455,0.526-1.522,2.03-1.22c2.032,0.409,3.8,1.404,5.545,2.464
	c0.25,0.152,0.631,0.254,0.899,0.183c4.417-1.166,8.825-1.159,13.243-0.005c0.272,0.071,0.638-0.028,0.905-0.161
	c1.297-0.648,2.538-1.426,3.873-1.974c0.88-0.361,1.884-0.432,2.841-0.579c0.159-0.024,0.466,0.19,0.528,0.359
	c0.765,2.073,1.016,4.197,0.416,6.353c-0.141,0.507-0.053,0.83,0.273,1.221c0.971,1.163,1.619,2.501,1.999,3.971
	c0.542,2.097,0.43,4.207,0.1,6.31c-0.586,3.737-2.3,6.749-5.793,8.49c-1.031,0.514-2.148,0.886-3.26,1.201
	c-1.101,0.312-2.247,0.469-3.43,0.706c1.452,1.527,1.78,3.372,1.774,5.33c-0.008,2.369-0.002,4.738-0.001,7.107
	c0.001,1.583,0.85,2.185,2.342,1.662c13.138-4.607,20.925-18.254,18.207-31.907C56.342,11.1,41.147,1.223,25.889,4.671
	C12.113,7.784,2.77,20.627,4.224,34.695c0.938,9.073,5.376,16.12,13.08,21.01c1.735,1.102,3.696,1.868,5.601,2.676
	c1.277,0.541,2.231-0.201,2.236-1.577c0.002-0.54,0-1.081,0-1.621c0-0.948,0-1.896,0-2.839c-0.843,0.092-1.602,0.207-2.366,0.253
	c-3.344,0.199-6.208-1.285-7.336-4.39c-0.571-1.57-1.559-2.875-3.038-3.758c-0.296-0.177-0.553-0.44-0.783-0.703
	c-0.3-0.344-0.174-0.642,0.239-0.743c0.356-0.087,0.744-0.134,1.105-0.09c1.815,0.219,3.1,1.274,3.991,2.783
	c1.868,3.163,4.8,3.619,7.861,2.467c0.168-0.063,0.381-0.241,0.411-0.396C25.479,46.46,25.972,45.274,26.902,44.275z"/>
</svg>
