<?xml version="1.0" encoding="utf-8"?>
<!-- Generator: Adobe Illustrator 17.0.0, SVG Export Plug-In . SVG Version: 6.00 Build 0)  -->
<!DOCTYPE svg PUBLIC "-//W3C//DTD SVG 1.1//EN" "http://www.w3.org/Graphics/SVG/1.1/DTD/svg11.dtd">
<svg version="1.1" id="Слой_1" xmlns="http://www.w3.org/2000/svg" xmlns:xlink="http://www.w3.org/1999/xlink" x="0px" y="0px"
	 width="64px" height="64px" viewBox="0 0 64 64" enable-background="new 0 0 64 64" xml:space="preserve">
<g>
	<path fill="#D71920" d="M63.943,31.972c0,17.668-14.316,31.971-31.971,31.971S0,49.64,0,31.972C0,14.316,14.317,0,31.972,0
		S63.943,14.316,63.943,31.972z"/>
	<g>
		<path d="M19.1,18.795v10.172c1.548-1.846,3.405-2.777,5.558-2.777c1.109,0,2.103,0.211,2.992,0.632
			c0.894,0.417,1.562,0.953,2.011,1.604c0.454,0.655,0.761,1.375,0.925,2.167c0.165,0.788,0.248,2.016,0.248,3.679v10.877h-4.811
			v-9.796c0-1.943-0.087-3.175-0.27-3.697c-0.183-0.527-0.504-0.939-0.967-1.246c-0.463-0.311-1.04-0.467-1.736-0.467
			c-0.797,0-1.512,0.201-2.135,0.596c-0.632,0.398-1.09,0.994-1.379,1.791c-0.293,0.797-0.44,1.975-0.435,3.533l-0.005,9.287h-4.806
			V18.795C14.289,18.795,19.1,18.795,19.1,18.795z"/>
		<path d="M37.921,18.795v10.172c1.548-1.846,3.404-2.777,5.557-2.777c1.104,0,2.103,0.211,2.997,0.632
			c0.889,0.417,1.558,0.953,2.006,1.604c0.454,0.655,0.761,1.375,0.926,2.167c0.165,0.788,0.247,2.016,0.247,3.679v10.877h-4.806
			v-9.796c0-1.943-0.091-3.175-0.275-3.697c-0.183-0.527-0.504-0.939-0.967-1.246c-0.458-0.311-1.04-0.467-1.736-0.467
			c-0.797,0-1.512,0.201-2.135,0.596c-0.627,0.398-1.085,0.994-1.379,1.791c-0.289,0.797-0.435,1.975-0.435,3.533v9.287h-4.806
			V18.795H37.921z"/>
	</g>
</g>
</svg>
